<?xml version="1.0" encoding="utf-8"?>
<!-- Generator: Adobe Illustrator 15.0.0, SVG Export Plug-In . SVG Version: 6.00 Build 0)  -->
<!DOCTYPE svg PUBLIC "-//W3C//DTD SVG 1.1//EN" "http://www.w3.org/Graphics/SVG/1.1/DTD/svg11.dtd">
<svg version="1.1" id="your_id" xmlns="http://www.w3.org/2000/svg" xmlns:xlink="http://www.w3.org/1999/xlink" x="0px" y="0px"
	 width="200px" height="200px" viewBox="0 0 200 200" enable-background="new 0 0 200 200" xml:space="preserve">
  <style>
      .logo-s01{
        stroke-dasharray: 209;
        stroke-dashoffset: -9 
      }
      
      .logo-s02{
        stroke-dasharray: 192;
        stroke-dashoffset: -13 
      }
      .logo-s03{
        stroke-dasharray: 114;
        stroke-dashoffset: -17
      }
      .logo-s04{
        stroke-dasharray: 57;
        stroke-dashoffset: -1 
      }
      .logo-s05{
        stroke-dasharray: 120;
        stroke-dashoffset: 0
      }
      .logo-s06{
        stroke-dasharray: 34;
        stroke-dashoffset: 0
      }
      .logo-s07{
        stroke-dasharray: 122;
        stroke-dashoffset: -4
      }
  </style>
  <g>
    <defs>
      <polygon id="SVGID_1_" points="105.074,-10.304 -2.62,44.043 92.209,91.5 199.903,37.153 		"/>
    </defs>
    <clipPath id="SVGID_2_">
      <use xlink:href="#SVGID_1_"  overflow="visible"/>
    </clipPath>
    <path class="logo-s01" clip-path="url(#SVGID_2_)" fill="none" stroke="#231F20" stroke-width="10" stroke-miterlimit="10" d="M203.233,27.419
      c0,0-70.243,34.728-83.751,41.339c-16.447,8.051-40.646,6.777-54.424-0.284C48.901,60.192,0.02,35.531,0.02,35.531"/>
  </g>
  <g>
    <defs>
      <polygon id="SVGID_3_" points="93.717,91.601 93.718,204.313 194.529,153.906 194.529,42.833 		"/>
    </defs>
    <clipPath id="SVGID_4_">
      <use xlink:href="#SVGID_3_"  overflow="visible"/>
    </clipPath>
    <path class="logo-s02" clip-path="url(#SVGID_4_)" fill="none" stroke="#231F20" stroke-width="10" stroke-miterlimit="10" d="M178.254,36.342
      c0,0,0.001,55.975,0.001,71.186c0,15.211,0.185,15.118-13.605,22.013c-13.787,6.894-30.541,15.271-44.146,22.073
      s-13.604,6.987-13.604,22.013s0,35.104,0,35.104"/>
  </g>
  <g>
    <defs>
      <polygon id="SVGID_5_" points="204.746,123.419 204.747,180.658 118.702,137.635 118.702,80.806 		"/>
    </defs>
    <clipPath id="SVGID_6_">
      <use xlink:href="#SVGID_5_"  overflow="visible"/>
    </clipPath>
    <path class="logo-s03" clip-path="url(#SVGID_6_)" fill="none" stroke="#231F20" stroke-width="10" stroke-miterlimit="10" d="M185.793,189.983
      c0,0,0-11.271,0-26.577s0-15.211-13.563-22.072c-13.563-6.86-9.559-4.834-23.479-11.875c-13.918-7.041-13.532-6.865-13.532-22.336
      c0-15.471,0.066-26.317,0.066-26.317"/>
  </g>
  <g>
    <defs>
      <polygon id="SVGID_7_" points="65.729,95.593 65.73,126.354 19.49,103.233 19.49,72.693 		"/>
    </defs>
    <clipPath id="SVGID_8_">
      <use xlink:href="#SVGID_7_"  overflow="visible"/>
    </clipPath>
    <path class="logo-s04" clip-path="url(#SVGID_8_)" fill="none" stroke="#231F20" stroke-width="10" stroke-miterlimit="10" d="M16.99,85.869
      l50.715,25.358"/>
  </g>
  <g>
    <defs>
      <polygon id="SVGID_9_" points="91.34,139.616 91.341,196.855 5.297,153.832 5.297,97.003 		"/>
    </defs>
    <clipPath id="SVGID_10_">
      <use xlink:href="#SVGID_9_"  overflow="visible"/>
    </clipPath>
    <path class="logo-s05" clip-path="url(#SVGID_10_)" fill="none" stroke="#231F20" stroke-width="10" stroke-miterlimit="10" d="M3.952,116.291
      l92.199,46.1"/>
  </g>
  <g>
    <defs>
      <polygon id="SVGID_11_" points="118.022,29.028 89.492,43.426 114.614,55.999 143.146,41.6 		"/>
    </defs>
    <clipPath id="SVGID_12_">
      <use xlink:href="#SVGID_11_"  overflow="visible"/>
    </clipPath>
    <path class="logo-s06" clip-path="url(#SVGID_12_)" fill="none" stroke="#231F20" stroke-width="10" stroke-miterlimit="10" d="M135.192,47.81
      l-30.118-15.06"/>
  </g>
  <g>
    <defs>
      <polygon id="SVGID_13_" points="100.753,-22.381 23.846,16.429 91.566,50.32 168.472,11.509 		"/>
    </defs>
    <clipPath id="SVGID_14_">
      <use xlink:href="#SVGID_13_"  overflow="visible"/>
    </clipPath>
    <path class="logo-s07" clip-path="url(#SVGID_14_)" fill="none" stroke="#231F20" stroke-width="10" stroke-miterlimit="10" d="M31.743,26.702
      c0,0,20.335-10.16,33.397-16.801c14.102-7.169,37.895-8.311,54.994,0.24c13.802,6.902,35.344,17.671,35.344,17.671"/>
  </g>
</svg>
