<?xml version="1.0" encoding="utf-8"?>
<!-- Generator: Adobe Illustrator 15.0.0, SVG Export Plug-In . SVG Version: 6.00 Build 0)  -->
<!DOCTYPE svg PUBLIC "-//W3C//DTD SVG 1.1//EN" "http://www.w3.org/Graphics/SVG/1.1/DTD/svg11.dtd">
<svg version="1.1" id="your_id" xmlns="http://www.w3.org/2000/svg" xmlns:xlink="http://www.w3.org/1999/xlink" x="0px" y="0px"
	 width="200px" height="200px" viewBox="0 0 200 200" enable-background="new 0 0 200 200" xml:space="preserve">
<path fill="#231F20" d="M197.379,35.89c-18.87,9.327-65.078,32.161-75.698,37.359c-8.643,4.23-18.85,6.045-28.738,6.045
	c-11.457,0-22.487-2.436-30.165-6.37c-13.324-6.83-49.369-25.033-61.193-31.002l11.096-5.6
	c15.296,7.725,43.262,21.861,54.659,27.703c11.851,6.074,34.317,7.894,49.945,0.243c9.491-4.646,47.479-23.412,68.881-33.989
	L197.379,35.89z"/>
<path fill="#231F20" d="M173.254,53.125l10-4.837l0.001,59.833c0.003,16.548-1.068,18.242-16.367,25.892l-44.148,22.074
	c-5.672,2.836-8.928,4.516-9.876,6.062c-0.963,1.571-0.963,5.298-0.963,11.472v21.601l-10,5v-26.594
	c0-16.935,1.224-18.914,16.368-26.485l44.146-22.072c5.591-2.796,8.965-4.482,9.922-5.989c0.921-1.449,0.92-5.028,0.919-10.957
	L173.254,53.125z"/>
<path fill="#231F20" d="M180.793,168.681v-5.274c0-6.243,0-10.011-0.938-11.559c-0.923-1.521-4.2-3.179-9.63-5.925l-23.73-12.002
	c-15.223-7.701-16.287-9.375-16.276-25.583l0.001-1.215c0-8.651,0.021-15.902,0.039-20.594l9.983,4.944
	c-0.013,4.273-0.022,9.618-0.022,15.65l-0.001,1.222c-0.004,5.753-0.006,9.226,0.896,10.633c0.96,1.5,4.515,3.298,9.895,6.02
	l23.73,12.002c15.005,7.591,16.055,9.318,16.055,26.407v10.274L180.793,168.681z"/>
<path fill="#231F20" d="M19.49,81.529l46.239,23.12v10.528l-0.26,0.521L19.49,92.709V81.529z"/>
<path fill="#231F20" d="M6.188,111.819l85.151,42.576l0,11.18L5.297,122.553v-8.95L6.188,111.819z"/>
<path fill="#231F20" d="M127.441,49.525l-24.604-12.303l0.355-0.711l10.244-5.17l23.99,11.997l-0.768,1.536L127.441,49.525z"/>
<path fill="#231F20" d="M151.342,22.154l-11.129,5.616l-22.315-11.157c-16.09-8.046-38.307-6.449-50.492-0.255
	c-7.218,3.67-16.731,8.452-23.764,11.978l-11.168-5.589C38.6,19.681,52.925,12.502,62.874,7.444
	c14.195-7.217,39.869-9.589,59.496,0.225L151.342,22.154z"/>
</svg>
